<?xml version="1.0" encoding="UTF-8"?>
<svg height="128px" viewBox="0 0 128 128" width="128px" xmlns="http://www.w3.org/2000/svg" xmlns:xlink="http://www.w3.org/1999/xlink">
    <filter id="a" height="100%" width="100%" x="0%" y="0%">
        <feColorMatrix color-interpolation-filters="sRGB" values="0 0 0 0 1 0 0 0 0 1 0 0 0 0 1 0 0 0 1 0"/>
    </filter>
    <clipPath id="b">
        <path d="m 0 0 h 128 v 128 h -128 z m 0 0"/>
    </clipPath>
    <clipPath id="c">
        <rect height="128" width="128"/>
    </clipPath>
    <clipPath id="d">
        <rect height="128" width="128"/>
    </clipPath>
    <mask id="e">
        <g filter="url(#a)">
            <g clip-path="url(#d)" filter="url(#a)">
                <g clip-path="url(#c)">
                    <g clip-path="url(#b)">
                        <path d="m 21.933911 13.946068 c 0 3.095961 -2.239184 5.60622 -5.000994 5.60622 s -5.000994 -2.510259 -5.000994 -5.60622 s 2.239184 -5.60622 5.000994 -5.60622 s 5.000994 2.510259 5.000994 5.60622 z m 0 0" fill="none" stroke="#e5a50a" stroke-width="2.49169" transform="matrix(5.20209 0 0 5.20209 -24.090471 -16.134644)"/>
                        <path d="m 23.049978 13.811289 c 0 3.604313 -2.738728 6.525879 -6.116676 6.525879 c -3.378867 0 -6.117594 -2.921566 -6.117594 -6.525879 c 0 -3.604314 2.738727 -6.525879 6.117594 -6.525879 c 3.377948 0 6.116676 2.921565 6.116676 6.525879 z m 0 0" fill="none" stroke="#f8e45c" stroke-width="2.97328" transform="matrix(4.253229 0 0 4.468387 -8.021214 -13.866533)"/>
                    </g>
                    <path d="m 19.683594 43.628906 h 88.632812 c 4.238282 0 7.671875 3.609375 7.671875 8.058594 v 56.289062 c 0 4.449219 -3.433593 8.054688 -7.671875 8.054688 h -88.632812 c -4.234375 0 -7.667969 -3.605469 -7.667969 -8.054688 v -56.289062 c 0 -4.449219 3.433594 -8.058594 7.667969 -8.058594 z m 0 0" fill="#f5c211"/>
                    <path d="m 19.953125 103.703125 h 88.09375 v 12.332031 h -88.09375 z m 0 0" fill="#e5a50a"/>
                    <path d="m 19.492188 43.628906 h 89.015624 c 4.132813 0 7.480469 3.519532 7.480469 7.855469 v 49.679687 c 0 4.339844 -3.347656 7.855469 -7.480469 7.855469 h -89.015624 c -4.128907 0 -7.476563 -3.515625 -7.476563 -7.855469 v -49.679687 c 0 -4.335937 3.347656 -7.855469 7.476563 -7.855469 z m 0 0" fill="#f8e45c"/>
                    <path d="m 67.027344 93.292969 c 0 1.671875 -1.355469 3.023437 -3.027344 3.019531 l -2.867188 -0.003906 c -1.671874 -0.003906 -3.027343 -1.363282 -3.027343 -3.035156 c 0 -1.671876 1.355469 -3.023438 3.027343 -3.019532 l 2.867188 0.003906 c 1.671875 0.003907 3.027344 1.363282 3.027344 3.035157 z m 0 0" fill="#241f31"/>
                    <path d="m 64 73.722656 c 1.671875 0 3.027344 1.355469 3.027344 3.027344 v 16.539062 c 0 1.671876 -1.355469 3.027344 -3.027344 3.027344 s -3.027344 -1.355468 -3.027344 -3.027344 v -16.539062 c 0 -1.671875 1.355469 -3.027344 3.027344 -3.027344 z m 0 0" fill="#241f31"/>
                    <path d="m 75.660156 65.082031 c 0 6.4375 -5.222656 11.660157 -11.660156 11.660157 c -6.441406 0 -11.660156 -5.222657 -11.660156 -11.660157 c 0 -6.441406 5.21875 -11.660156 11.660156 -11.660156 c 6.4375 0 11.660156 5.21875 11.660156 11.660156 z m 0 0" fill="#241f31"/>
                </g>
            </g>
        </g>
    </mask>
    <mask id="f">
        <g filter="url(#a)">
            <rect fill-opacity="0.8" height="184.32" width="184.32" x="-28.16" y="-28.16"/>
        </g>
    </mask>
    <linearGradient id="g" gradientTransform="matrix(0 0.37 -0.98462 0 295.38501 -30.360001)" gradientUnits="userSpaceOnUse" x1="300" x2="428" y1="235" y2="235">
        <stop offset="0" stop-color="#f9f06b"/>
        <stop offset="1" stop-color="#f5c211"/>
    </linearGradient>
    <clipPath id="h">
        <rect height="128" width="128"/>
    </clipPath>
    <clipPath id="i">
        <rect height="128" width="128"/>
    </clipPath>
    <path d="m 90.01170807399 56.41405688212 c 0 16.10546775849 -11.64843669456 29.1640609998 -26.01562087746 29.1640609998 s -26.01562087746 -13.05859324131 -26.01562087746 -29.1640609998 s 11.64843669456 -29.1640609998 26.01562087746 -29.1640609998 s 26.01562087746 13.05859324131 26.01562087746 29.1640609998 z m 0 0" fill="none" stroke="#e5a50a" stroke-width="12.9619956321"/>
    <path d="m 23.049978 13.811289 c 0 3.604313 -2.738728 6.525879 -6.116676 6.525879 c -3.378867 0 -6.117594 -2.921566 -6.117594 -6.525879 c 0 -3.604314 2.738727 -6.525879 6.117594 -6.525879 c 3.377948 0 6.116676 2.921565 6.116676 6.525879 z m 0 0" fill="none" stroke="#f8e45c" stroke-width="2.97328" transform="matrix(4.253229 0 0 4.468387 -8.021214 -13.866533)"/>
    <path d="m 19.683594 43.628906 h 88.632812 c 4.238282 0 7.671875 3.609375 7.671875 8.058594 v 56.289062 c 0 4.449219 -3.433593 8.054688 -7.671875 8.054688 h -88.632812 c -4.234375 0 -7.667969 -3.605469 -7.667969 -8.054688 v -56.289062 c 0 -4.449219 3.433594 -8.058594 7.667969 -8.058594 z m 0 0" fill="#f5c211"/>
    <path d="m 19.953125 103.703125 h 88.09375 v 12.332031 h -88.09375 z m 0 0" fill="#e5a50a"/>
    <path d="m 19.492188 43.628906 h 89.015624 c 4.132813 0 7.480469 3.519532 7.480469 7.855469 v 49.679687 c 0 4.339844 -3.347656 7.855469 -7.480469 7.855469 h -89.015624 c -4.128907 0 -7.476563 -3.515625 -7.476563 -7.855469 v -49.679687 c 0 -4.335937 3.347656 -7.855469 7.476563 -7.855469 z m 0 0" fill="#f8e45c"/>
    <g fill="#241f31">
        <path d="m 67.027344 93.292969 c 0 1.671875 -1.355469 3.023437 -3.027344 3.019531 l -2.867188 -0.003906 c -1.671874 -0.003906 -3.027343 -1.363282 -3.027343 -3.035156 c 0 -1.671876 1.355469 -3.023438 3.027343 -3.019532 l 2.867188 0.003906 c 1.671875 0.003907 3.027344 1.363282 3.027344 3.035157 z m 0 0"/>
        <path d="m 64 73.722656 c 1.671875 0 3.027344 1.355469 3.027344 3.027344 v 16.539062 c 0 1.671876 -1.355469 3.027344 -3.027344 3.027344 s -3.027344 -1.355468 -3.027344 -3.027344 v -16.539062 c 0 -1.671875 1.355469 -3.027344 3.027344 -3.027344 z m 0 0"/>
        <path d="m 75.660156 65.082031 c 0 6.4375 -5.222656 11.660157 -11.660156 11.660157 c -6.441406 0 -11.660156 -5.222657 -11.660156 -11.660157 c 0 -6.441406 5.21875 -11.660156 11.660156 -11.660156 c 6.4375 0 11.660156 5.21875 11.660156 11.660156 z m 0 0"/>
    </g>
    <g mask="url(#e)">
        <g clip-path="url(#i)">
            <g mask="url(#f)">
                <g clip-path="url(#h)">
                    <path d="m 128 80.640625 v 47.359375 h -128 v -47.359375 z m 0 0" fill="url(#g)"/>
                    <path d="m 13.308594 80.640625 l 47.355468 47.359375 h 21.214844 l -47.359375 -47.359375 z m 42.421875 0 l 47.363281 47.359375 h 21.214844 l -47.363282 -47.359375 z m 42.429687 0 l 29.839844 29.839844 v -21.210938 l -8.628906 -8.628906 z m -98.160156 7.90625 v 21.214844 l 18.238281 18.238281 h 21.214844 z m 0 0"/>
                </g>
            </g>
        </g>
    </g>
</svg>
