<svg width="16" height="16" viewBox="0 0 4.233 4.233" xml:space="preserve" xmlns="http://www.w3.org/2000/svg"><g style="display:inline"><path style="display:inline;opacity:1;fill:#000;fill-opacity:1;stroke:none;stroke-width:.513567;stroke-linecap:round;stroke-linejoin:round;stroke-dasharray:none;stroke-opacity:1;paint-order:stroke fill markers" d="M6.47 14.49c-.975 0-1.759.784-1.759 1.758v11.117c0 .974.784 1.758 1.758 1.758h20.928c.974 0 1.759-.784 1.759-1.758V16.248c0-.974-.785-1.759-1.759-1.759zm10.463 2.19a2.741 2.61 0 0 1 2.741 2.61 2.741 2.61 0 0 1-2.036 2.517c.004.03.007.062.007.094v3.702a.627.627 0 0 1-.013.126l-.004.022a.682.682 0 0 1-.012.043l-.003.011a.647.647 0 0 1-.02.054l-.008.016a.647.647 0 0 1-.022.044l-.007.012a.647.647 0 0 1-.03.046l-.005.008a.678.678 0 0 1-.032.04l-.014.017a.686.686 0 0 1-.03.032l-.008.008-.012.01-.027.024-.02.016a.705.705 0 0 1-.409.146l-.036.002h-.02l-.654-.002c-.394-.001-.712-.304-.712-.68 0-.362.298-.657.674-.675v-3.022c0-.032.003-.063.008-.094a2.741 2.61 0 0 1-2.037-2.517 2.741 2.61 0 0 1 2.741-2.61z" transform="matrix(.17318 0 0 .18194 -.816 -1.208)"/><path d="M16.934 3.187c-4.766 0-8.557 4.321-8.557 9.473 0 4.859 3.373 8.979 7.755 9.431v-1.784c0-.038.004-.075.009-.11a3.085 3.085 0 0 1-2.28-2.718c-1.29-1.07-2.139-2.804-2.139-4.82 0-3.37 2.375-5.957 5.212-5.957 2.837 0 5.21 2.587 5.21 5.958 0 2.015-.848 3.75-2.137 4.819a3.085 3.085 0 0 1-2.28 2.717.822.822 0 0 1 .007.11v1.785c4.383-.452 7.756-4.572 7.756-9.431 0-5.152-3.79-9.473-8.556-9.473z" style="display:inline;fill:#000;fill-opacity:1;paint-order:stroke fill markers" transform="translate(-.49 -.348) scale(.1539)"/></g></svg>