<?xml version="1.0" encoding="UTF-8"?>
<svg height="128px" viewBox="0 0 128 128" width="128px" xmlns="http://www.w3.org/2000/svg">
    <path d="m 90.01170807399 56.41405688212 c 0 16.10546775849 -11.64843669456 29.1640609998 -26.01562087746 29.1640609998 s -26.01562087746 -13.05859324131 -26.01562087746 -29.1640609998 s 11.64843669456 -29.1640609998 26.01562087746 -29.1640609998 s 26.01562087746 13.05859324131 26.01562087746 29.1640609998 z m 0 0" fill="none" stroke="#e5a50a" stroke-width="12.9619956321"/>
    <path d="m 23.049978 13.811289 c 0 3.604313 -2.738728 6.525879 -6.116676 6.525879 c -3.378867 0 -6.117594 -2.921566 -6.117594 -6.525879 c 0 -3.604314 2.738727 -6.525879 6.117594 -6.525879 c 3.377948 0 6.116676 2.921565 6.116676 6.525879 z m 0 0" fill="none" stroke="#f8e45c" stroke-width="2.97328" transform="matrix(4.253229 0 0 4.468387 -8.021214 -13.866533)"/>
    <path d="m 19.683594 43.628906 h 88.632812 c 4.238282 0 7.671875 3.609375 7.671875 8.058594 v 56.289062 c 0 4.449219 -3.433593 8.054688 -7.671875 8.054688 h -88.632812 c -4.234375 0 -7.667969 -3.605469 -7.667969 -8.054688 v -56.289062 c 0 -4.449219 3.433594 -8.058594 7.667969 -8.058594 z m 0 0" fill="#f5c211"/>
    <path d="m 19.953125 103.703125 h 88.09375 v 12.332031 h -88.09375 z m 0 0" fill="#e5a50a"/>
    <path d="m 19.492188 43.628906 h 89.015624 c 4.132813 0 7.480469 3.519532 7.480469 7.855469 v 49.679687 c 0 4.339844 -3.347656 7.855469 -7.480469 7.855469 h -89.015624 c -4.128907 0 -7.476563 -3.515625 -7.476563 -7.855469 v -49.679687 c 0 -4.335937 3.347656 -7.855469 7.476563 -7.855469 z m 0 0" fill="#f8e45c"/>
    <g fill="#241f31">
        <path d="m 67.027344 93.292969 c 0 1.671875 -1.355469 3.023437 -3.027344 3.019531 l -2.867188 -0.003906 c -1.671874 -0.003906 -3.027343 -1.363282 -3.027343 -3.035156 c 0 -1.671876 1.355469 -3.023438 3.027343 -3.019532 l 2.867188 0.003906 c 1.671875 0.003907 3.027344 1.363282 3.027344 3.035157 z m 0 0"/>
        <path d="m 64 73.722656 c 1.671875 0 3.027344 1.355469 3.027344 3.027344 v 16.539062 c 0 1.671876 -1.355469 3.027344 -3.027344 3.027344 s -3.027344 -1.355468 -3.027344 -3.027344 v -16.539062 c 0 -1.671875 1.355469 -3.027344 3.027344 -3.027344 z m 0 0"/>
        <path d="m 75.660156 65.082031 c 0 6.4375 -5.222656 11.660157 -11.660156 11.660157 c -6.441406 0 -11.660156 -5.222657 -11.660156 -11.660157 c 0 -6.441406 5.21875 -11.660156 11.660156 -11.660156 c 6.4375 0 11.660156 5.21875 11.660156 11.660156 z m 0 0"/>
    </g>
</svg>
