<?xml version="1.0" encoding="UTF-8" standalone="no"?>
<!-- Created with Inkscape (http://www.inkscape.org/) -->

<svg
   width="128"
   height="128"
   viewBox="0 0 33.866667 33.866667"
   version="1.1"
   id="svg1"
   xml:space="preserve"
   inkscape:version="1.4 (e7c3feb100, 2024-10-09)"
   sodipodi:docname="Inkscape-Icon.svg"
   xmlns:inkscape="http://www.inkscape.org/namespaces/inkscape"
   xmlns:sodipodi="http://sodipodi.sourceforge.net/DTD/sodipodi-0.dtd"
   xmlns:xlink="http://www.w3.org/1999/xlink"
   xmlns="http://www.w3.org/2000/svg"
   xmlns:svg="http://www.w3.org/2000/svg"><sodipodi:namedview
     id="namedview1"
     pagecolor="#ffffff"
     bordercolor="#999999"
     borderopacity="1"
     inkscape:showpageshadow="2"
     inkscape:pageopacity="0"
     inkscape:pagecheckerboard="true"
     inkscape:deskcolor="#d1d1d1"
     inkscape:document-units="mm"
     inkscape:zoom="5.6568542"
     inkscape:cx="62.402174"
     inkscape:cy="67.793863"
     inkscape:window-width="2560"
     inkscape:window-height="1371"
     inkscape:window-x="0"
     inkscape:window-y="0"
     inkscape:window-maximized="1"
     inkscape:current-layer="layer3" /><defs
     id="defs1"><inkscape:path-effect
       effect="bspline"
       id="path-effect18"
       is_visible="true"
       lpeversion="1.3"
       weight="33.333333"
       steps="2"
       helper_size="0"
       apply_no_weight="true"
       apply_with_weight="true"
       only_selected="false"
       uniform="false" /><inkscape:path-effect
       effect="bspline"
       id="path-effect6"
       is_visible="true"
       lpeversion="1.3"
       weight="33.333333"
       steps="2"
       helper_size="0"
       apply_no_weight="true"
       apply_with_weight="true"
       only_selected="false"
       uniform="false" /><inkscape:path-effect
       effect="bspline"
       id="path-effect4"
       is_visible="true"
       lpeversion="1.3"
       weight="33.333333"
       steps="2"
       helper_size="0"
       apply_no_weight="true"
       apply_with_weight="true"
       only_selected="false"
       uniform="false" /><inkscape:path-effect
       effect="bspline"
       id="path-effect19"
       is_visible="true"
       lpeversion="1.3"
       weight="33.333333"
       steps="2"
       helper_size="0"
       apply_no_weight="true"
       apply_with_weight="true"
       only_selected="false"
       uniform="false" /><inkscape:path-effect
       effect="bspline"
       id="path-effect17"
       is_visible="true"
       lpeversion="1.3"
       weight="33.333333"
       steps="2"
       helper_size="0"
       apply_no_weight="true"
       apply_with_weight="true"
       only_selected="false"
       uniform="false" /><inkscape:path-effect
       effect="bspline"
       id="path-effect15"
       is_visible="true"
       lpeversion="1.3"
       weight="33.333333"
       steps="2"
       helper_size="0"
       apply_no_weight="true"
       apply_with_weight="true"
       only_selected="false"
       uniform="false" /><inkscape:path-effect
       effect="bspline"
       id="path-effect12"
       is_visible="true"
       lpeversion="1.3"
       weight="33.333333"
       steps="2"
       helper_size="0"
       apply_no_weight="true"
       apply_with_weight="true"
       only_selected="false"
       uniform="false" /><inkscape:path-effect
       effect="bspline"
       id="path-effect11"
       is_visible="true"
       lpeversion="1.3"
       weight="33.333333"
       steps="2"
       helper_size="0"
       apply_no_weight="true"
       apply_with_weight="true"
       only_selected="false"
       uniform="false" /><inkscape:path-effect
       effect="bspline"
       id="path-effect10"
       is_visible="true"
       lpeversion="1.3"
       weight="33.333333"
       steps="2"
       helper_size="0"
       apply_no_weight="true"
       apply_with_weight="true"
       only_selected="false"
       uniform="false" /><inkscape:path-effect
       effect="bspline"
       id="path-effect2"
       is_visible="true"
       lpeversion="1.3"
       weight="33.333333"
       steps="2"
       helper_size="0"
       apply_no_weight="true"
       apply_with_weight="true"
       only_selected="false"
       uniform="false" /><inkscape:path-effect
       effect="bspline"
       id="path-effect1"
       is_visible="true"
       lpeversion="1.3"
       weight="33.333333"
       steps="2"
       helper_size="0"
       apply_no_weight="true"
       apply_with_weight="true"
       only_selected="false"
       uniform="false" /><inkscape:path-effect
       effect="bspline"
       id="path-effect17-7"
       is_visible="true"
       lpeversion="1.3"
       weight="33.333333"
       steps="2"
       helper_size="0"
       apply_no_weight="true"
       apply_with_weight="true"
       only_selected="false"
       uniform="false" /><inkscape:path-effect
       effect="bspline"
       id="path-effect12-5"
       is_visible="true"
       lpeversion="1.3"
       weight="33.333333"
       steps="2"
       helper_size="0"
       apply_no_weight="true"
       apply_with_weight="true"
       only_selected="false"
       uniform="false" /><inkscape:path-effect
       effect="bspline"
       id="path-effect11-3"
       is_visible="true"
       lpeversion="1.3"
       weight="33.333333"
       steps="2"
       helper_size="0"
       apply_no_weight="true"
       apply_with_weight="true"
       only_selected="false"
       uniform="false" /><linearGradient
       y2="236"
       x2="96"
       y1="236"
       x1="32"
       gradientTransform="translate(604.81684,170.58641)"
       gradientUnits="userSpaceOnUse"
       id="linearGradient1099"
       xlink:href="#linearGradient1036" /><linearGradient
       id="linearGradient1036"><stop
         id="stop1032"
         offset="0"
         style="stop-color:#d5d3cf;stop-opacity:1;" /><stop
         id="stop1034"
         offset="1"
         style="stop-color:#f6f5f4;stop-opacity:1" /></linearGradient><radialGradient
       r="32"
       fy="-76"
       fx="-244"
       cy="-76"
       cx="-244"
       gradientTransform="matrix(0.88333331,0,0,0.88333331,-460.35018,463.11973)"
       gradientUnits="userSpaceOnUse"
       id="radialGradient1103"
       xlink:href="#linearGradient1069" /><linearGradient
       id="linearGradient1069"><stop
         id="stop1065"
         offset="0"
         style="stop-color:#d5d3cf;stop-opacity:1" /><stop
         id="stop1067-1"
         offset="1"
         style="stop-color:#949390;stop-opacity:1" /></linearGradient><linearGradient
       gradientUnits="userSpaceOnUse"
       y2="232"
       x2="64"
       y1="262.5"
       x1="64"
       id="linearGradient1027"
       xlink:href="#linearGradient1025"
       gradientTransform="translate(-470.5864,432.81685)" /><linearGradient
       id="linearGradient1025"><stop
         id="stop1021"
         offset="0"
         style="stop-color:#9a9996;stop-opacity:1" /><stop
         id="stop1023"
         offset="1"
         style="stop-color:#77767b;stop-opacity:1" /></linearGradient><inkscape:path-effect
       effect="spiro"
       id="path-effect35304-9"
       is_visible="true" /><clipPath
       clipPathUnits="userSpaceOnUse"
       id="clipPath1609-7"><path
         sodipodi:nodetypes="cccccc"
         inkscape:connector-curvature="0"
         id="path1611-5"
         d="m 252,116 28,-28 v -8 h -36 v 36 z"
         style="fill:#e74747;stroke:none;stroke-width:0.25px;stroke-linecap:butt;stroke-linejoin:miter;stroke-opacity:1" /></clipPath></defs><g
     style="display:none;enable-background:new"
     id="g5"
     transform="matrix(0.26458333,0,0,0.26458333,-0.03292253,0.09118592)"
     inkscape:label="HIG"><g
       id="layer1-7"
       inkscape:label="App Icon"
       style="display:inline"
       transform="translate(0.125,-172.3125)"><g
         inkscape:groupmode="layer"
         id="layer2-0"
         inkscape:label="baseplate"
         style="display:inline"
         sodipodi:insensitive="true"><g
           style="display:inline;fill:#000000;enable-background:new"
           transform="matrix(7.9911709,0,0,8.0036407,-167.7909,-4846.0776)"
           id="g12027"
           inkscape:export-xdpi="12"
           inkscape:export-ydpi="12" /><rect
           style="display:inline;overflow:visible;visibility:visible;fill:#f0f0f0;fill-opacity:1;fill-rule:nonzero;stroke:none;stroke-width:0.5;marker:none;enable-background:accumulate"
           id="rect13805"
           width="128"
           height="128"
           x="9.2651362e-08"
           y="172"
           inkscape:label="512x512" /><g
           id="g883"
           style="fill:none;fill-opacity:0.25098;stroke:#a579b3;stroke-opacity:1"
           transform="translate(-24,24)" /><g
           id="g900"
           style="fill:none;fill-opacity:0.25098;stroke:#a579b3;stroke-opacity:1"
           transform="translate(-24,24)" /><rect
           inkscape:label="512x512"
           y="172"
           x="160"
           height="16"
           width="16"
           id="rect859"
           style="display:inline;overflow:visible;visibility:visible;fill:#f0f0f0;fill-opacity:1;fill-rule:nonzero;stroke:none;stroke-width:0.5;marker:none;enable-background:accumulate" /><text
           xml:space="preserve"
           style="font-style:normal;font-variant:normal;font-weight:bold;font-stretch:normal;font-size:4px;line-height:125%;font-family:Cantarell;-inkscape-font-specification:'Cantarell, Bold';text-align:start;writing-mode:lr-tb;text-anchor:start;display:inline;fill:#000000;fill-opacity:1;stroke:none;stroke-width:0.332649;enable-background:new"
           x="0"
           y="164"
           id="text863"
           inkscape:label="icon-name"><tspan
             style="font-size:4px;stroke-width:0.332649"
             sodipodi:role="line"
             id="tspan861"
             x="0"
             y="164">Hicolor</tspan></text><text
           inkscape:label="icon-name"
           id="text867"
           y="164"
           x="160"
           style="font-style:normal;font-variant:normal;font-weight:bold;font-stretch:normal;font-size:4px;line-height:125%;font-family:Cantarell;-inkscape-font-specification:'Cantarell, Bold';text-align:start;writing-mode:lr-tb;text-anchor:start;display:inline;fill:#000000;fill-opacity:1;stroke:none;stroke-width:0.332649;enable-background:new"
           xml:space="preserve"><tspan
             y="164"
             x="160"
             id="tspan865"
             sodipodi:role="line"
             style="font-size:4px;stroke-width:0.332649">Symbolic</tspan></text></g><g
         inkscape:groupmode="layer"
         id="layer9"
         inkscape:label="icons"
         style="display:inline" /><g
         inkscape:groupmode="layer"
         id="layer3-9"
         inkscape:label="hairlines"
         style="display:inline"
         sodipodi:insensitive="true"><circle
           cx="64.000031"
           cy="236"
           r="59.504131"
           id="circle2892"
           style="display:inline;opacity:0.1;vector-effect:none;fill:none;fill-opacity:1;stroke:#000000;stroke-width:0.99;stroke-linecap:butt;stroke-linejoin:miter;stroke-miterlimit:4;stroke-dasharray:0.99, 0.99;stroke-dashoffset:0;stroke-opacity:1;marker:none;marker-start:none;marker-mid:none;marker-end:none;paint-order:normal;enable-background:new" /><rect
           ry="7.9292889"
           rx="8.701004"
           y="180.49496"
           x="20.495007"
           height="111.01005"
           width="87.009987"
           id="rect2894"
           style="display:inline;opacity:0.1;vector-effect:none;fill:none;fill-opacity:1;stroke:#000000;stroke-width:0.99;stroke-linecap:butt;stroke-linejoin:miter;stroke-miterlimit:4;stroke-dasharray:0.99, 0.99;stroke-dashoffset:0;stroke-opacity:1;marker:none;marker-start:none;marker-mid:none;marker-end:none;paint-order:normal;enable-background:new" /><rect
           ry="7.9238095"
           rx="7.9238095"
           y="184.49524"
           x="12.495266"
           height="103.00952"
           width="103.00952"
           id="rect2896"
           style="display:inline;opacity:0.1;vector-effect:none;fill:none;fill-opacity:1;stroke:#000000;stroke-width:0.99;stroke-linecap:butt;stroke-linejoin:miter;stroke-miterlimit:4;stroke-dasharray:0.99, 0.99;stroke-dashoffset:0;stroke-opacity:1;marker:none;marker-start:none;marker-mid:none;marker-end:none;paint-order:normal;enable-background:new" /><rect
           ry="8.701005"
           rx="7.9292889"
           y="200.49496"
           x="8.4950066"
           height="87.010048"
           width="111.01004"
           id="rect2898"
           style="display:inline;opacity:0.1;vector-effect:none;fill:none;fill-opacity:1;stroke:#000000;stroke-width:0.99;stroke-linecap:butt;stroke-linejoin:miter;stroke-miterlimit:4;stroke-dasharray:0.99, 0.99;stroke-dashoffset:0;stroke-opacity:1;marker:none;marker-start:none;marker-mid:none;marker-end:none;paint-order:normal;enable-background:new" /><path
           inkscape:connector-curvature="0"
           id="path2900"
           d="M 2.6203015e-5,288.99999 H 128.00003"
           style="display:inline;fill:none;stroke:#62a0ea;stroke-width:2;stroke-linecap:butt;stroke-linejoin:miter;stroke-miterlimit:4;stroke-dasharray:none;stroke-opacity:1;enable-background:new" /></g></g></g><g
     inkscape:groupmode="layer"
     id="layer3"
     inkscape:label="Symbolic"
     style="display:none"><path
       id="rect5"
       style="display:inline;opacity:1;fill:#000000;fill-opacity:1;stroke:none;stroke-width:0.513567;stroke-linecap:round;stroke-linejoin:round;stroke-dasharray:none;stroke-opacity:1;paint-order:stroke fill markers"
       inkscape:label="Body"
       d="m 6.4694064,14.489487 c -0.9741353,0 -1.7582999,0.7843 -1.7582999,1.758435 v 11.117087 c 0,0.974135 0.7841646,1.757998 1.7582999,1.757998 H 27.397261 c 0.974136,0 1.7583,-0.783863 1.7583,-1.757998 V 16.247922 c 0,-0.974135 -0.784164,-1.758435 -1.7583,-1.758435 z m 10.4639276,2.19116 a 2.7412203,2.609232 2.6737438e-6 0 1 2.741001,2.609023 2.7412203,2.609232 2.6737438e-6 0 1 -2.036579,2.51767 c 0.0044,0.03059 0.0073,0.06176 0.0073,0.09354 v 3.701762 4.37e-4 c -8e-6,0.02331 -0.0012,0.04637 -0.0037,0.06906 v 4.37e-4 c -0.002,0.01923 -0.0055,0.03811 -0.0092,0.05682 -0.0015,0.0073 -0.0029,0.01456 -0.0046,0.02185 -0.0034,0.01429 -0.0072,0.02847 -0.01148,0.0424 -0.0012,0.0038 -0.002,0.0077 -0.0032,0.01136 -8.41e-4,0.0028 -0.0018,0.0055 -0.0028,0.0083 -0.0053,0.01546 -0.01104,0.03052 -0.01745,0.04546 -0.0023,0.0054 -0.0049,0.01078 -0.0073,0.01617 -0.0068,0.01482 -0.01416,0.02949 -0.02204,0.04371 -0.0024,0.0042 -0.0045,0.0085 -0.0069,0.01268 -0.0092,0.01581 -0.01934,0.0309 -0.02985,0.04589 -0.0018,0.0026 -0.0036,0.0053 -0.0055,0.0079 -0.01003,0.01396 -0.02062,0.02748 -0.03169,0.04065 -0.0047,0.0056 -0.0094,0.01122 -0.01423,0.01661 -0.0097,0.01081 -0.01991,0.02127 -0.03031,0.03147 -0.0028,0.0027 -0.0054,0.0056 -0.0083,0.0083 -0.0039,0.0036 -0.0081,0.0069 -0.01194,0.01049 -0.0086,0.0078 -0.01714,0.01579 -0.02617,0.02317 -0.0066,0.0054 -0.01338,0.01055 -0.02021,0.01574 -0.01273,0.0097 -0.0256,0.01911 -0.03903,0.02797 -0.0053,0.0035 -0.01072,0.0068 -0.01607,0.01005 -0.01361,0.0085 -0.02755,0.01648 -0.04179,0.02404 -0.0053,0.0028 -0.01072,0.0056 -0.01607,0.0083 -0.0179,0.0089 -0.03587,0.01746 -0.05465,0.02491 -0.01509,0.006 -0.03077,0.01111 -0.04638,0.01617 -0.013,0.0042 -0.02616,0.0079 -0.03949,0.01136 -0.0093,0.0025 -0.01856,0.0049 -0.02801,0.007 -0.01811,0.004 -0.03648,0.0074 -0.0551,0.01005 -0.02369,0.0034 -0.04768,0.0058 -0.0721,0.007 -0.01208,5.73e-4 -0.02404,0.0017 -0.03628,0.0017 -0.0065,0 -0.01278,-7.11e-4 -0.01929,-8.74e-4 l -0.654828,-0.0017 c -0.39435,-8.53e-4 -0.711908,-0.303446 -0.711769,-0.67881 1.35e-4,-0.36319 0.297615,-0.657398 0.674115,-0.675312 v -3.022516 c 1.1e-5,-0.03179 0.0029,-0.06295 0.0073,-0.09354 a 2.7412203,2.609232 2.6737438e-6 0 1 -2.036579,-2.51767 2.7412203,2.609232 2.6737438e-6 0 1 2.741001,-2.609023 z"
       transform="matrix(1.1253431,0,0,1.1822687,-2.1224771,-5.5859521)" /><path
       d="m 16.93385,3.1874023 c -4.766291,0 -8.5565836,4.3207807 -8.5565836,9.4722897 0,4.858998 3.3725326,8.979049 7.7550826,9.431466 v -1.784387 c 1.3e-5,-0.03758 0.0033,-0.07442 0.0083,-0.110588 -1.26531,-0.336561 -2.170542,-1.430936 -2.280481,-2.717147 -1.5e-5,-1.7e-4 1.4e-5,-3.46e-4 0,-5.16e-4 -1.288805,-1.069449 -2.137854,-2.803592 -2.137854,-4.818828 0,-3.3708921 2.374566,-5.9577755 5.211568,-5.9577755 2.837002,0 5.211052,2.5868834 5.211052,5.9577755 0,2.015528 -0.849401,3.749934 -2.138371,4.819344 -0.109939,1.286211 -1.015171,2.380586 -2.280481,2.717147 0.0049,0.03617 0.0083,0.07302 0.0083,0.110588 v 1.784387 c 4.383047,-0.451882 7.756116,-4.572091 7.756116,-9.431466 0,-5.151509 -3.790293,-9.4722897 -8.556584,-9.4722897 z"
       style="display:inline;fill:#000000;fill-opacity:1;paint-order:stroke fill markers"
       id="path34"
       inkscape:label="Lock" /></g><g
     inkscape:groupmode="layer"
     id="layer5"
     inkscape:label="Color"
     style="display:inline"><g
       inkscape:groupmode="layer"
       id="layer2"
       inkscape:label="Lock"
       transform="matrix(1.3763938,0,0,1.3763938,-6.3736037,-4.2690436)"
       style="display:inline"><ellipse
         style="display:inline;fill:none;fill-opacity:1;stroke:#e5a50a;stroke-width:2.49169;stroke-dasharray:none;stroke-opacity:1;paint-order:stroke fill markers"
         id="path1"
         ry="5.6056533"
         rx="5.0011053"
         cy="13.945893"
         cx="16.933334"
         inkscape:label="Background" /><ellipse
         style="display:inline;fill:none;fill-opacity:1;stroke:#f8e45c;stroke-width:2.97328;stroke-dasharray:none;stroke-opacity:1;paint-order:stroke fill markers"
         id="ellipse21"
         ry="6.5260859"
         rx="6.1167932"
         cy="13.810661"
         cx="16.933334"
         transform="matrix(0.81760249,0,0,0.85896101,3.0885977,0.43646685)"
         inkscape:label="Foreground" /></g><g
       inkscape:label="Body"
       inkscape:groupmode="layer"
       id="layer1"
       style="display:inline"
       transform="matrix(1.1253431,0,0,1.1822687,-2.1224771,-5.5859521)"><rect
         style="display:inline;opacity:1;fill:#f5c211;fill-opacity:1;stroke:none;stroke-width:0.540402;stroke-linecap:round;stroke-linejoin:round;stroke-dasharray:none;stroke-opacity:1;paint-order:stroke fill markers"
         id="rect2-6"
         width="24.444662"
         height="16.202988"
         x="4.7110028"
         y="14.489432"
         inkscape:label="Corners"
         ry="1.8029414" /><rect
         style="display:inline;opacity:1;fill:#e5a50a;fill-opacity:1;stroke:none;stroke-width:0.205291;stroke-linecap:round;stroke-linejoin:round;stroke-dasharray:none;stroke-opacity:1;paint-order:stroke fill markers"
         id="rect6"
         width="20.712318"
         height="2.7597041"
         x="6.5771747"
         y="27.932714"
         inkscape:label="Shadow"
         ry="0" /><rect
         style="display:inline;opacity:1;fill:#f8e45c;fill-opacity:1;stroke:none;stroke-width:0.513567;stroke-linecap:round;stroke-linejoin:round;stroke-dasharray:none;stroke-opacity:1;paint-order:stroke fill markers"
         id="rect21"
         width="24.444662"
         height="14.633781"
         x="4.7110028"
         y="14.489432"
         inkscape:label="Top"
         ry="1.7583668" /></g><g
       inkscape:groupmode="layer"
       id="layer4"
       inkscape:label="Key"
       transform="matrix(1.1814965,0,0,1.1814965,-3.0733426,-5.1511271)"
       style="display:inline"><rect
         style="fill:#241f31;fill-opacity:1;stroke:none;stroke-width:1.66241;stroke-dasharray:none;stroke-opacity:1;paint-order:stroke fill markers"
         id="rect32"
         width="1.355989"
         height="1.9976381"
         x="24.533789"
         y="-17.620104"
         ry="0.67799449"
         transform="matrix(-3.5376115e-4,0.99999993,-0.99999742,-0.00226989,0,0)"
         inkscape:label="Bottom" /><rect
         style="fill:#241f31;fill-opacity:1;stroke:none;stroke-width:2.64583;stroke-dasharray:none;stroke-opacity:1;paint-order:stroke fill markers"
         id="rect33"
         width="1.3559896"
         height="5.0601563"
         x="16.255339"
         y="20.869009"
         ry="0.67799479"
         inkscape:label="Center" /><circle
         style="fill:#241f31;fill-opacity:1;stroke:none;stroke-width:1.72702;stroke-dasharray:none;stroke-opacity:1;paint-order:stroke fill markers"
         id="circle33"
         cx="16.933332"
         cy="18.934244"
         r="2.6109374"
         inkscape:label="Top" /></g></g></svg>
